<?xml version="1.0" standalone="no"?>
<!DOCTYPE svg PUBLIC "-//W3C//DTD SVG 20010904//EN"
 "http://www.w3.org/TR/2001/REC-SVG-20010904/DTD/svg10.dtd">
<svg version="1.0" xmlns="http://www.w3.org/2000/svg"
 width="512.000000pt" height="512.000000pt" viewBox="0 0 512.000000 512.000000"
 preserveAspectRatio="xMidYMid meet">
<metadata>
Created by potrace 1.11, written by Peter Selinger 2001-2013
</metadata>
<g transform="translate(0.000000,512.000000) scale(0.100000,-0.100000)"
fill="#000000" stroke="none">
<path d="M2306 5113 c-2 -2 -12 -5 -22 -7 -11 -3 -28 -7 -39 -11 -16 -6 -17
-5 -5 4 9 7 10 11 3 11 -6 0 -14 -4 -17 -9 -3 -5 -20 -8 -36 -7 -17 1 -36 -4
-41 -11 -8 -8 -17 -10 -28 -3 -10 5 -23 5 -32 -1 -7 -5 -26 -9 -41 -9 -15 0
-29 -4 -33 -10 -3 -5 -12 -7 -20 -3 -9 3 -15 -1 -15 -8 0 -11 -3 -11 -10 1 -7
11 -10 11 -10 2 0 -7 -4 -11 -9 -8 -5 4 -12 0 -14 -6 -4 -10 -6 -9 -6 1 -1 10
-4 11 -14 3 -12 -10 -54 -22 -84 -24 -7 -1 -13 -6 -13 -12 0 -6 -5 -4 -10 4
-6 10 -10 11 -10 3 0 -7 -7 -13 -15 -13 -8 0 -15 -4 -15 -9 0 -5 -9 -7 -20 -4
-11 3 -20 1 -20 -5 0 -6 -9 -9 -20 -7 -11 2 -20 -1 -20 -7 0 -5 -7 -8 -15 -4
-8 3 -15 2 -15 -3 0 -8 -38 -24 -52 -22 -5 1 -8 -3 -8 -9 0 -5 -6 -7 -14 -4
-7 3 -20 -1 -27 -9 -8 -7 -20 -12 -27 -9 -6 2 -12 -1 -12 -7 0 -6 -7 -8 -15
-5 -10 4 -13 2 -10 -8 4 -11 -1 -14 -17 -13 -13 1 -29 -4 -36 -12 -8 -7 -17
-11 -22 -8 -4 3 -11 -2 -14 -11 -4 -9 -9 -14 -13 -11 -6 7 -63 -22 -75 -38 -4
-5 -8 -6 -8 -2 0 5 -7 1 -16 -7 -8 -9 -19 -14 -23 -12 -4 3 -13 -4 -21 -14 -8
-10 -17 -17 -22 -14 -4 3 -8 0 -8 -6 0 -6 -5 -8 -10 -5 -5 3 -10 1 -10 -4 0
-6 -6 -10 -12 -8 -7 1 -12 -3 -11 -10 2 -7 -6 -10 -17 -8 -14 3 -17 -1 -13
-12 4 -11 2 -14 -5 -9 -7 4 -15 1 -18 -8 -3 -9 -10 -13 -15 -11 -4 3 -17 -3
-29 -15 -11 -11 -25 -20 -30 -20 -5 0 -10 -4 -10 -10 0 -5 -5 -10 -11 -10 -11
0 -90 -64 -140 -112 -16 -16 -33 -28 -39 -28 -6 0 -8 -4 -5 -10 3 -5 2 -10 -4
-10 -6 0 -26 -16 -45 -35 -20 -19 -40 -35 -45 -35 -6 0 -8 -7 -5 -15 4 -11 0
-15 -16 -15 -15 0 -20 -5 -17 -14 4 -9 -2 -17 -14 -21 -10 -4 -17 -11 -14 -16
4 -5 -1 -9 -9 -9 -9 0 -16 -7 -16 -16 0 -9 -5 -12 -12 -8 -8 5 -9 2 -5 -10 4
-9 3 -15 -1 -13 -4 2 -15 -4 -24 -15 -10 -10 -15 -18 -11 -18 4 0 -8 -13 -25
-28 -18 -16 -32 -32 -32 -35 0 -7 -24 -38 -53 -69 -9 -10 -15 -18 -12 -18 3 0
-4 -9 -15 -20 -11 -11 -20 -26 -20 -34 0 -8 -7 -17 -16 -20 -8 -3 -12 -10 -9
-16 3 -5 0 -10 -8 -10 -8 0 -18 -7 -21 -16 -6 -15 -4 -15 11 -3 10 7 7 0 -7
-16 -14 -17 -28 -31 -33 -33 -4 -2 -5 -8 -1 -13 3 -5 0 -9 -5 -9 -6 0 -11 -7
-11 -15 0 -9 -9 -25 -20 -37 -10 -12 -17 -25 -14 -30 3 -4 0 -8 -5 -8 -6 0
-11 -9 -11 -19 0 -11 -5 -23 -11 -26 -11 -8 -33 -55 -31 -67 1 -5 -3 -8 -9 -8
-5 0 -7 -4 -4 -10 3 -5 1 -10 -4 -10 -6 0 -11 -6 -11 -14 0 -21 -26 -67 -33
-59 -4 3 -7 2 -7 -3 0 -6 5 -15 12 -22 9 -9 8 -12 -7 -12 -10 0 -15 -3 -12 -7
4 -3 0 -17 -8 -30 -9 -13 -12 -23 -8 -23 5 0 1 -5 -7 -10 -11 -7 -12 -10 -2
-10 10 0 10 -4 -2 -15 -8 -8 -13 -24 -11 -35 2 -11 0 -18 -6 -15 -5 4 -10 -1
-10 -9 -2 -24 -4 -30 -10 -41 -4 -5 -5 -20 -4 -32 1 -13 -3 -19 -11 -16 -8 3
-11 -2 -7 -16 3 -13 1 -21 -7 -21 -10 0 -10 -3 0 -15 8 -10 9 -15 2 -15 -6 0
-9 -7 -6 -15 4 -8 1 -15 -7 -15 -7 0 -9 -3 -6 -7 4 -3 2 -12 -4 -20 -9 -10 -8
-13 2 -13 9 0 10 -3 4 -8 -10 -7 -17 -27 -18 -49 0 -7 -5 -13 -11 -13 -6 0 -4
-5 4 -10 12 -8 12 -10 1 -10 -10 0 -11 -3 -2 -13 8 -10 8 -16 -1 -25 -10 -10
-15 -31 -22 -103 -1 -20 -6 -42 -11 -49 -4 -7 -2 -16 6 -21 12 -8 11 -12 -3
-23 -13 -10 -15 -15 -6 -24 9 -9 9 -12 0 -12 -10 0 -10 -5 -1 -21 6 -12 7 -19
1 -15 -6 3 -10 -61 -10 -174 0 -101 4 -182 9 -186 5 -3 7 -10 3 -15 -10 -17
-12 -59 -3 -65 5 -3 9 -10 9 -15 0 -6 -6 -7 -12 -2 -8 4 -6 -4 4 -18 10 -16
13 -31 8 -39 -5 -8 -5 -19 0 -25 5 -6 11 -35 12 -63 2 -29 6 -52 11 -52 4 0 7
-20 7 -45 0 -25 4 -45 10 -45 5 0 9 -3 8 -7 -1 -5 1 -27 5 -50 4 -24 8 -46 8
-50 0 -5 5 -13 11 -20 5 -7 7 -17 3 -23 -3 -5 -2 -10 3 -10 6 0 13 -7 16 -16
3 -8 2 -12 -4 -9 -16 10 -11 -11 9 -36 10 -13 16 -30 14 -37 -3 -7 0 -19 7
-27 6 -8 9 -19 5 -25 -3 -5 2 -10 12 -11 11 0 13 -2 5 -6 -10 -4 -9 -9 4 -24
9 -11 14 -22 11 -26 -4 -3 0 -15 10 -25 13 -14 13 -18 2 -18 -10 -1 -10 -4 3
-14 10 -7 15 -16 11 -19 -3 -4 -1 -7 6 -7 7 0 10 -4 7 -8 -3 -5 4 -23 15 -41
11 -18 17 -36 14 -42 -4 -5 -2 -9 4 -9 6 0 13 -11 17 -25 3 -14 9 -23 13 -21
4 3 8 -5 8 -16 1 -12 6 -24 10 -27 4 -3 9 -13 11 -21 2 -8 8 -16 13 -18 5 -2
9 -10 9 -18 0 -8 5 -14 11 -14 6 0 8 -7 5 -15 -3 -9 1 -18 8 -21 8 -3 20 -19
26 -35 7 -17 17 -26 24 -22 6 3 8 3 4 -2 -4 -4 -3 -14 3 -22 6 -7 8 -13 4 -13
-5 0 2 -9 15 -20 13 -11 19 -20 14 -20 -5 0 -1 -5 9 -11 9 -5 17 -16 17 -23 0
-8 7 -16 15 -20 8 -3 15 -12 15 -21 0 -8 5 -15 11 -15 5 0 7 -5 4 -10 -3 -6 2
-10 11 -10 10 0 15 -3 11 -6 -5 -5 10 -27 40 -59 7 -8 13 -18 13 -24 0 -6 8
-11 17 -11 9 0 13 -3 10 -6 -4 -4 6 -18 21 -30 15 -13 23 -24 19 -24 -4 0 5
-12 20 -28 16 -15 32 -27 37 -27 5 0 12 -10 17 -22 5 -13 15 -23 24 -23 8 0
15 -4 15 -9 0 -5 19 -29 42 -53 23 -23 36 -34 29 -23 -8 11 2 3 22 -18 19 -20
40 -37 46 -37 6 0 15 -9 21 -20 6 -11 17 -20 25 -20 8 0 15 -7 15 -16 0 -10 6
-14 14 -11 9 4 17 -2 21 -13 3 -10 13 -21 21 -24 10 -4 13 -2 8 7 -5 8 -2 8 9
-2 9 -7 14 -17 11 -22 -2 -5 7 -11 21 -15 14 -3 25 -10 25 -15 0 -5 6 -9 13
-9 7 0 19 -9 27 -20 8 -11 22 -20 32 -20 10 0 18 -4 18 -10 0 -5 7 -10 15 -10
8 0 15 -5 15 -11 0 -6 7 -8 16 -5 8 3 12 2 9 -4 -3 -5 6 -12 20 -16 14 -3 25
-10 25 -15 0 -5 5 -9 12 -9 6 0 23 -10 36 -22 14 -13 22 -17 18 -10 -4 6 -2
12 3 12 6 0 11 -4 11 -10 0 -5 8 -10 18 -10 10 0 24 -9 32 -20 11 -15 17 -17
27 -8 11 9 13 8 11 -3 -2 -8 3 -13 10 -12 6 2 12 -2 12 -8 0 -6 7 -9 15 -5 8
3 15 2 15 -3 0 -5 14 -11 31 -15 21 -4 28 -10 23 -18 -4 -7 -4 -10 1 -6 4 4
15 2 23 -5 13 -9 14 -9 8 0 -5 9 -2 11 8 7 9 -3 14 -10 11 -14 -2 -4 7 -7 21
-7 15 -1 30 -6 34 -13 4 -7 12 -10 18 -6 5 3 12 -1 16 -9 3 -8 11 -15 18 -15
9 0 8 3 -2 10 -23 15 -2 12 29 -5 16 -8 31 -11 35 -8 3 4 6 1 6 -6 0 -8 8 -11
20 -8 11 3 20 1 20 -5 0 -6 6 -8 14 -5 8 3 16 2 18 -3 2 -5 20 -11 40 -12 21
-2 38 -6 38 -10 0 -5 16 -8 35 -8 19 0 35 -4 35 -8 0 -4 17 -8 38 -7 20 0 45
-6 54 -14 15 -12 20 -12 35 0 11 9 14 10 9 2 -5 -10 3 -13 28 -13 21 0 36 -5
36 -12 0 -6 7 -3 16 8 8 10 13 14 10 8 -3 -7 5 -14 19 -16 15 -3 25 -1 25 6 0
8 2 8 8 0 10 -15 54 -26 45 -11 -4 7 0 8 13 3 36 -14 75 -16 67 -3 -5 9 -3 9
8 1 18 -14 285 -18 294 -4 4 6 14 5 27 -3 16 -10 22 -9 25 1 4 10 8 10 21 0
10 -8 13 -9 9 -1 -10 16 13 22 42 11 13 -5 28 -5 35 0 6 5 26 8 44 7 17 0 32
3 32 8 0 4 4 5 10 2 5 -3 18 -1 28 4 13 7 23 6 32 -2 10 -9 11 -9 6 1 -7 13
-2 14 49 14 17 0 36 5 42 10 7 6 19 8 27 5 8 -3 17 0 19 7 3 7 20 12 41 11 19
-1 33 2 30 6 -3 5 9 9 25 9 17 0 31 5 31 12 0 6 3 8 7 5 3 -4 13 -1 21 6 13
10 14 9 7 -3 -7 -12 -6 -13 7 -3 8 7 18 10 21 6 4 -3 7 -1 7 6 0 7 5 9 10 6 6
-3 10 0 10 7 0 9 3 9 10 -2 7 -11 10 -11 10 -2 0 7 5 10 10 7 6 -3 10 -1 10 5
0 6 5 8 11 4 6 -3 15 -1 19 5 4 7 17 13 28 14 12 1 22 4 22 7 0 3 10 6 22 7
11 1 24 7 28 14 5 6 13 8 20 4 9 -5 11 -4 6 3 -5 8 0 12 13 12 11 0 23 5 26
10 4 6 14 9 23 8 10 -2 16 3 14 10 -2 10 4 11 19 7 13 -5 19 -3 15 3 -3 5 6
13 19 16 17 4 23 11 18 19 -5 9 -3 9 9 -1 13 -10 17 -10 22 3 3 9 10 13 16 10
5 -3 10 -1 10 4 0 6 6 10 13 8 6 -1 11 3 10 10 -1 6 8 10 21 9 18 -2 23 1 18
12 -3 9 -1 13 5 9 6 -4 17 -2 25 5 7 7 25 19 40 27 15 8 25 17 23 22 -3 4 5 5
17 1 16 -4 20 -2 16 9 -4 10 1 15 15 16 11 1 25 9 29 18 5 8 15 15 22 15 8 0
16 7 20 15 3 8 12 15 20 15 7 0 17 7 20 16 4 9 9 15 12 12 5 -6 40 21 79 59
12 13 27 23 32 23 5 0 19 11 31 25 12 14 27 25 33 25 5 0 8 4 5 9 -3 5 2 15
11 22 14 12 16 12 8 0 -5 -10 -4 -12 3 -7 7 4 12 14 12 22 0 8 4 12 10 9 5 -3
15 5 21 19 7 14 16 23 21 20 5 -3 12 3 15 15 3 11 8 19 12 17 3 -2 12 2 19 10
7 8 10 14 7 14 -3 0 3 8 13 18 9 11 20 17 25 15 4 -2 7 3 7 11 0 9 9 21 20 28
11 7 20 17 20 23 0 15 37 45 46 37 4 -4 4 -2 0 5 -4 7 2 21 14 33 11 11 20 23
20 26 0 4 9 15 21 25 11 10 18 23 14 29 -3 6 -3 9 2 8 4 -2 9 0 10 5 2 4 14
18 28 31 18 17 22 26 13 29 -8 3 -6 6 5 6 10 1 16 5 12 10 -3 5 3 16 13 23 11
7 18 21 16 31 -1 11 0 16 3 13 11 -10 59 66 55 86 -1 5 3 8 9 8 5 0 8 4 4 9
-3 5 3 16 12 23 10 7 20 22 21 33 2 11 9 23 15 27 7 4 8 8 2 8 -5 0 -4 4 3 9
7 4 14 14 16 22 1 8 8 24 14 37 7 12 10 28 6 34 -4 7 -3 8 4 4 11 -6 16 6 13
27 0 4 4 7 10 7 5 0 7 4 4 10 -3 5 -1 10 6 10 7 0 10 3 6 6 -3 4 0 19 9 35 8
16 11 29 7 29 -5 0 -1 5 7 10 8 5 15 15 16 22 0 7 2 21 2 31 1 10 5 16 10 13
4 -2 8 9 9 26 0 17 5 33 10 37 6 3 9 14 7 24 -1 9 1 17 5 17 4 0 8 9 9 20 4
44 6 50 14 50 5 0 7 4 4 8 -3 5 1 21 9 36 8 14 10 24 5 21 -6 -4 -10 -2 -10 4
0 5 4 12 10 16 5 3 7 12 3 20 -3 8 -1 15 4 15 5 0 10 12 11 28 1 34 6 60 14
67 3 4 4 20 1 36 -2 16 -1 29 4 29 4 0 9 15 10 33 1 17 4 55 7 82 12 98 15
438 4 458 -7 13 -7 17 0 13 6 -4 10 2 9 13 0 11 -5 17 -9 14 -5 -2 -6 8 -2 23
5 21 4 25 -6 19 -10 -6 -11 -4 -4 6 13 21 14 39 1 39 -7 0 -5 5 3 10 10 6 11
10 3 10 -7 0 -13 11 -13 25 0 14 0 36 0 51 0 17 -4 23 -13 18 -8 -5 -7 -2 2 9
9 11 10 17 2 17 -6 0 -10 3 -10 8 5 30 -3 72 -12 66 -8 -4 -8 0 0 15 10 17 9
22 -4 27 -11 5 -13 10 -5 19 7 9 6 16 -5 25 -8 7 -12 16 -9 22 3 5 0 16 -8 25
-7 9 -8 14 -2 10 8 -4 8 3 0 28 -6 18 -13 32 -17 30 -3 -3 -4 6 -2 19 3 13 -2
30 -11 39 -12 11 -13 17 -3 20 9 4 9 6 -1 6 -7 1 -10 6 -7 11 3 6 2 10 -4 10
-5 0 -8 11 -6 25 1 14 -4 29 -12 34 -8 4 -16 20 -16 34 -1 15 -6 27 -11 27 -5
0 -6 3 -3 7 4 3 -1 12 -11 20 -9 8 -11 11 -4 8 11 -6 11 -3 0 16 -7 13 -15 26
-18 29 -3 3 -7 14 -8 25 -2 11 -8 22 -13 23 -5 2 -9 15 -9 28 0 17 -4 23 -12
18 -8 -5 -9 -2 -5 9 4 12 1 17 -10 17 -9 0 -14 3 -10 6 3 4 0 19 -9 35 -8 16
-11 29 -7 29 5 0 0 5 -9 11 -10 5 -18 17 -18 24 0 8 -4 15 -9 15 -8 0 -22 35
-18 43 1 2 -5 11 -13 20 -31 34 -40 46 -40 57 0 5 -5 10 -11 10 -5 0 -7 5 -4
10 3 6 -1 13 -9 16 -9 3 -16 12 -16 19 0 6 -12 25 -27 41 -16 16 -34 42 -42
57 -8 15 -18 27 -23 27 -4 0 -8 5 -8 10 0 6 -12 22 -26 35 -15 14 -24 25 -20
25 4 0 -4 11 -18 25 -14 14 -30 25 -36 25 -5 0 -9 3 -9 8 4 21 -3 32 -18 32
-9 0 -14 3 -10 6 8 8 -18 34 -34 34 -7 0 -10 3 -6 6 6 6 -82 94 -95 94 -4 0
-7 6 -6 13 2 6 -5 11 -14 11 -10 -1 -16 3 -15 9 1 6 -8 16 -21 22 -13 7 -23
15 -23 19 1 3 0 5 -2 4 -2 -2 -18 13 -37 32 -18 19 -29 28 -24 20 7 -13 5 -13
-9 -1 -9 7 -14 18 -10 24 4 6 0 8 -10 4 -11 -4 -17 -1 -17 8 0 8 -7 15 -15 15
-8 0 -15 5 -15 10 0 6 -7 10 -15 10 -8 0 -15 4 -15 8 0 5 -12 14 -26 20 -16 8
-22 17 -18 25 5 8 2 7 -9 -2 -15 -12 -17 -12 -11 2 4 12 1 15 -15 12 -12 -2
-19 0 -17 4 3 4 -7 14 -22 22 -15 8 -29 16 -32 19 -3 3 -14 12 -24 20 -18 13
-19 13 -12 0 5 -10 3 -9 -6 2 -8 9 -21 18 -29 20 -7 2 -19 9 -24 16 -6 7 -20
14 -32 15 -13 0 -25 7 -27 13 -3 7 -15 18 -27 24 -17 10 -20 9 -13 -1 4 -7 -8
-2 -27 11 -19 14 -40 23 -47 22 -9 -2 -11 1 -6 10 4 7 4 10 -1 6 -4 -4 -20 -1
-36 8 -16 8 -29 12 -29 9 0 -4 -10 1 -21 9 -12 8 -28 12 -37 9 -10 -4 -13 -2
-8 5 4 8 0 12 -12 12 -10 0 -22 3 -26 7 -6 7 -29 13 -53 15 -7 1 -13 5 -13 10
0 4 -9 8 -20 8 -12 0 -33 8 -47 18 -21 13 -25 14 -18 2 8 -13 6 -13 -8 -1 -9
7 -24 11 -32 7 -10 -4 -14 -2 -9 5 5 8 -3 10 -24 7 -17 -2 -29 -1 -27 3 3 4
-2 9 -9 12 -8 3 -17 1 -20 -6 -3 -9 -5 -9 -5 1 -1 6 -10 12 -21 12 -11 0 -20
6 -20 13 0 8 -4 7 -10 -3 -5 -8 -10 -10 -10 -4 0 6 -10 12 -22 12 -31 2 -51 6
-65 15 -7 5 -13 4 -13 -2 0 -6 -14 -4 -35 5 -27 11 -35 11 -35 2 0 -9 -3 -8
-10 2 -5 8 -10 11 -10 5 0 -5 -5 -4 -12 3 -7 7 -17 8 -28 2 -9 -5 -22 -5 -30
0 -7 4 -20 6 -28 2 -10 -3 -13 -1 -8 7 9 14 -15 11 -26 -3 -4 -6 -12 -5 -20 2
-16 13 -418 14 -418 0 0 -4 -5 -8 -11 -8 -5 0 -8 4 -5 8 5 8 -20 13 -28 5z"/>
</g>
</svg>
